<?xml version="1.0" encoding="UTF-8"?>
<!-- ============================================================
     GENERATED BY: /speckit.wireframe
     SOURCE: specs/user-dashboard/spec.md
     DATE: 2025-01-01
     DO NOT MANUALLY EDIT - Regenerate with /speckit.wireframe command
     ============================================================ -->
<svg xmlns="http://www.w3.org/2000/svg" viewBox="0 0 1400 800">
  <defs>
    <style>
      .bg { fill: #1a1a2e; }
      .card { fill: #16213e; stroke: #0f3460; stroke-width: 1; }
      .card-header { fill: #0f3460; }
      .text-primary { fill: #e94560; font-family: system-ui, sans-serif; }
      .text-secondary { fill: #a0a0a0; font-family: system-ui, sans-serif; }
      .text-label { fill: #ffffff; font-family: system-ui, sans-serif; font-size: 14px; }
      .button-primary { fill: #e94560; }
      .button-text { fill: #ffffff; font-family: system-ui, sans-serif; font-size: 12px; }
      .input { fill: #1a1a2e; stroke: #0f3460; stroke-width: 1; }
      .nav { fill: #0f3460; }
      .divider { stroke: #0f3460; stroke-width: 1; }
      .icon-placeholder { fill: #0f3460; }
      .chart-bar { fill: #e94560; opacity: 0.8; }
      .chart-bar-alt { fill: #0f3460; }
    </style>
  </defs>

  <!-- Background -->
  <rect class="bg" width="1400" height="800"/>

  <!-- Title -->
  <text x="700" y="30" text-anchor="middle" class="text-primary" font-size="18" font-weight="bold">User Dashboard - Desktop (900px) + Mobile (360px)</text>

  <!-- ==================== DESKTOP VIEW (Left Side) ==================== -->
  <g transform="translate(50, 50)">
    <!-- Desktop Frame -->
    <rect class="card" x="0" y="0" width="900" height="700" rx="8"/>

    <!-- Desktop Label -->
    <text x="450" y="-10" text-anchor="middle" class="text-secondary" font-size="12">DESKTOP VIEW (900px)</text>

    <!-- Top Navigation Bar -->
    <rect class="nav" x="0" y="0" width="900" height="60" rx="8"/>
    <rect class="nav" x="0" y="50" width="900" height="10"/>

    <!-- Logo placeholder -->
    <rect class="icon-placeholder" x="20" y="15" width="30" height="30" rx="4"/>
    <text x="60" y="37" class="text-label" font-weight="bold">SpecKit Demo</text>

    <!-- Nav items -->
    <text x="650" y="37" class="text-secondary" font-size="12">Dashboard</text>
    <text x="740" y="37" class="text-secondary" font-size="12">Settings</text>
    <rect class="button-primary" x="810" y="20" width="70" height="28" rx="4"/>
    <text x="845" y="39" text-anchor="middle" class="button-text">Logout</text>

    <!-- Sidebar -->
    <rect class="card-header" x="0" y="60" width="200" height="640"/>

    <!-- Sidebar menu items -->
    <rect class="button-primary" x="10" y="80" width="180" height="36" rx="4"/>
    <text x="100" y="103" text-anchor="middle" class="button-text">Overview</text>

    <text x="20" y="145" class="text-secondary" font-size="13">Analytics</text>
    <text x="20" y="175" class="text-secondary" font-size="13">Projects</text>
    <text x="20" y="205" class="text-secondary" font-size="13">Team</text>
    <text x="20" y="235" class="text-secondary" font-size="13">Reports</text>

    <!-- Main Content Area -->
    <g transform="translate(220, 80)">
      <!-- Welcome Card -->
      <rect class="card" x="0" y="0" width="660" height="100" rx="8"/>
      <text x="20" y="35" class="text-label" font-size="16" font-weight="bold">Welcome back, Developer!</text>
      <text x="20" y="60" class="text-secondary" font-size="13">Here's what's happening with your projects today.</text>
      <rect class="button-primary" x="540" y="30" width="100" height="36" rx="4"/>
      <text x="590" y="53" text-anchor="middle" class="button-text">New Project</text>

      <!-- Stats Row -->
      <g transform="translate(0, 120)">
        <!-- Stat Card 1 -->
        <rect class="card" x="0" y="0" width="210" height="100" rx="8"/>
        <text x="20" y="30" class="text-secondary" font-size="11">TOTAL SPECS</text>
        <text x="20" y="65" class="text-primary" font-size="28" font-weight="bold">24</text>
        <text x="20" y="85" class="text-secondary" font-size="11">+3 this week</text>

        <!-- Stat Card 2 -->
        <rect class="card" x="225" y="0" width="210" height="100" rx="8"/>
        <text x="245" y="30" class="text-secondary" font-size="11">IN PROGRESS</text>
        <text x="245" y="65" class="text-primary" font-size="28" font-weight="bold">8</text>
        <text x="245" y="85" class="text-secondary" font-size="11">2 pending review</text>

        <!-- Stat Card 3 -->
        <rect class="card" x="450" y="0" width="210" height="100" rx="8"/>
        <text x="470" y="30" class="text-secondary" font-size="11">COMPLETED</text>
        <text x="470" y="65" class="text-primary" font-size="28" font-weight="bold">16</text>
        <text x="470" y="85" class="text-secondary" font-size="11">Last: 2 days ago</text>
      </g>

      <!-- Chart Section -->
      <g transform="translate(0, 240)">
        <rect class="card" x="0" y="0" width="430" height="200" rx="8"/>
        <text x="20" y="30" class="text-label" font-size="14" font-weight="bold">Weekly Activity</text>

        <!-- Simple bar chart -->
        <g transform="translate(30, 50)">
          <rect class="chart-bar" x="0" y="80" width="40" height="60"/>
          <rect class="chart-bar" x="55" y="40" width="40" height="100"/>
          <rect class="chart-bar" x="110" y="60" width="40" height="80"/>
          <rect class="chart-bar" x="165" y="20" width="40" height="120"/>
          <rect class="chart-bar" x="220" y="50" width="40" height="90"/>
          <rect class="chart-bar-alt" x="275" y="100" width="40" height="40"/>
          <rect class="chart-bar-alt" x="330" y="110" width="40" height="30"/>

          <!-- X-axis labels -->
          <text x="20" y="160" class="text-secondary" font-size="10">Mon</text>
          <text x="75" y="160" class="text-secondary" font-size="10">Tue</text>
          <text x="130" y="160" class="text-secondary" font-size="10">Wed</text>
          <text x="185" y="160" class="text-secondary" font-size="10">Thu</text>
          <text x="240" y="160" class="text-secondary" font-size="10">Fri</text>
          <text x="295" y="160" class="text-secondary" font-size="10">Sat</text>
          <text x="350" y="160" class="text-secondary" font-size="10">Sun</text>
        </g>
      </g>

      <!-- Recent Activity -->
      <g transform="translate(445, 240)">
        <rect class="card" x="0" y="0" width="215" height="200" rx="8"/>
        <text x="15" y="30" class="text-label" font-size="14" font-weight="bold">Recent Activity</text>

        <g transform="translate(15, 50)">
          <rect class="icon-placeholder" x="0" y="0" width="24" height="24" rx="12"/>
          <text x="35" y="10" class="text-secondary" font-size="11">Spec created</text>
          <text x="35" y="22" class="text-secondary" font-size="9">2 hours ago</text>
        </g>

        <g transform="translate(15, 90)">
          <rect class="icon-placeholder" x="0" y="0" width="24" height="24" rx="12"/>
          <text x="35" y="10" class="text-secondary" font-size="11">Review completed</text>
          <text x="35" y="22" class="text-secondary" font-size="9">5 hours ago</text>
        </g>

        <g transform="translate(15, 130)">
          <rect class="icon-placeholder" x="0" y="0" width="24" height="24" rx="12"/>
          <text x="35" y="10" class="text-secondary" font-size="11">Plan approved</text>
          <text x="35" y="22" class="text-secondary" font-size="9">Yesterday</text>
        </g>
      </g>
    </g>
  </g>

  <!-- ==================== MOBILE VIEW (Right Side) ==================== -->
  <g transform="translate(1000, 50)">
    <!-- Mobile Frame -->
    <rect class="card" x="0" y="0" width="360" height="700" rx="8"/>

    <!-- Mobile Label -->
    <text x="180" y="-10" text-anchor="middle" class="text-secondary" font-size="12">MOBILE VIEW (360px)</text>

    <!-- Mobile Header -->
    <rect class="nav" x="0" y="0" width="360" height="56" rx="8"/>
    <rect class="nav" x="0" y="48" width="360" height="8"/>

    <!-- Hamburger menu icon -->
    <rect class="icon-placeholder" x="15" y="18" width="24" height="3" rx="1"/>
    <rect class="icon-placeholder" x="15" y="25" width="24" height="3" rx="1"/>
    <rect class="icon-placeholder" x="15" y="32" width="24" height="3" rx="1"/>

    <!-- Mobile title -->
    <text x="180" y="35" text-anchor="middle" class="text-label" font-size="14" font-weight="bold">Dashboard</text>

    <!-- Profile icon -->
    <rect class="icon-placeholder" x="320" y="16" width="28" height="28" rx="14"/>

    <!-- Mobile Content -->
    <g transform="translate(15, 70)">
      <!-- Welcome section (stacked) -->
      <rect class="card" x="0" y="0" width="330" height="80" rx="8"/>
      <text x="15" y="28" class="text-label" font-size="14" font-weight="bold">Welcome back!</text>
      <text x="15" y="48" class="text-secondary" font-size="11">Your projects overview</text>
      <rect class="button-primary" x="220" y="20" width="95" height="32" rx="4"/>
      <text x="267" y="41" text-anchor="middle" class="button-text" font-size="11">New Project</text>

      <!-- Stats (2x2 grid on mobile) -->
      <g transform="translate(0, 95)">
        <rect class="card" x="0" y="0" width="160" height="70" rx="8"/>
        <text x="12" y="22" class="text-secondary" font-size="9">TOTAL SPECS</text>
        <text x="12" y="50" class="text-primary" font-size="22" font-weight="bold">24</text>

        <rect class="card" x="170" y="0" width="160" height="70" rx="8"/>
        <text x="182" y="22" class="text-secondary" font-size="9">IN PROGRESS</text>
        <text x="182" y="50" class="text-primary" font-size="22" font-weight="bold">8</text>
      </g>

      <!-- Chart (full width on mobile) -->
      <g transform="translate(0, 180)">
        <rect class="card" x="0" y="0" width="330" height="160" rx="8"/>
        <text x="15" y="25" class="text-label" font-size="12" font-weight="bold">Weekly Activity</text>

        <!-- Simplified bar chart for mobile -->
        <g transform="translate(20, 45)">
          <rect class="chart-bar" x="0" y="50" width="35" height="50"/>
          <rect class="chart-bar" x="45" y="20" width="35" height="80"/>
          <rect class="chart-bar" x="90" y="35" width="35" height="65"/>
          <rect class="chart-bar" x="135" y="10" width="35" height="90"/>
          <rect class="chart-bar" x="180" y="30" width="35" height="70"/>
          <rect class="chart-bar-alt" x="225" y="70" width="35" height="30"/>
          <rect class="chart-bar-alt" x="270" y="80" width="35" height="20"/>
        </g>
      </g>

      <!-- Recent Activity (compact) -->
      <g transform="translate(0, 355)">
        <rect class="card" x="0" y="0" width="330" height="140" rx="8"/>
        <text x="15" y="25" class="text-label" font-size="12" font-weight="bold">Recent Activity</text>

        <g transform="translate(15, 45)">
          <rect class="icon-placeholder" x="0" y="0" width="20" height="20" rx="10"/>
          <text x="30" y="14" class="text-secondary" font-size="11">Spec created - 2h ago</text>
        </g>

        <g transform="translate(15, 75)">
          <rect class="icon-placeholder" x="0" y="0" width="20" height="20" rx="10"/>
          <text x="30" y="14" class="text-secondary" font-size="11">Review completed - 5h ago</text>
        </g>

        <g transform="translate(15, 105)">
          <rect class="icon-placeholder" x="0" y="0" width="20" height="20" rx="10"/>
          <text x="30" y="14" class="text-secondary" font-size="11">Plan approved - Yesterday</text>
        </g>
      </g>

      <!-- Bottom navigation (mobile) -->
      <g transform="translate(0, 510)">
        <rect class="nav" x="0" y="0" width="330" height="56" rx="8"/>

        <g transform="translate(40, 10)">
          <rect class="icon-placeholder" x="0" y="0" width="24" height="24" rx="4"/>
          <text x="12" y="40" text-anchor="middle" class="text-primary" font-size="9">Home</text>
        </g>

        <g transform="translate(120, 10)">
          <rect class="icon-placeholder" x="0" y="0" width="24" height="24" rx="4"/>
          <text x="12" y="40" text-anchor="middle" class="text-secondary" font-size="9">Projects</text>
        </g>

        <g transform="translate(200, 10)">
          <rect class="icon-placeholder" x="0" y="0" width="24" height="24" rx="4"/>
          <text x="12" y="40" text-anchor="middle" class="text-secondary" font-size="9">Team</text>
        </g>

        <g transform="translate(280, 10)">
          <rect class="icon-placeholder" x="0" y="0" width="24" height="24" rx="4"/>
          <text x="12" y="40" text-anchor="middle" class="text-secondary" font-size="9">Settings</text>
        </g>
      </g>
    </g>
  </g>
</svg>
